<svg xmlns="http://www.w3.org/2000/svg" viewBox="0 0 160 160"><defs><linearGradient id="g" x1="0" y1="0" x2="1" y2="1"><stop stop-color="#ffedd5"/><stop offset="1" stop-color="#fdba74"/></linearGradient></defs><rect width="160" height="160" rx="34" fill="url(#g)"/><circle cx="80" cy="62" r="31" fill="#f0bd98"/><path d="M48 60c0-27 15-43 35-43 21 0 35 16 34 43-12-4-22-12-29-24-9 13-22 21-40 24z" fill="#54372c"/><circle cx="68" cy="63" r="3" fill="#3e2f2a"/><circle cx="92" cy="63" r="3" fill="#3e2f2a"/><path d="M71 78c6 5 12 5 18 0" fill="none" stroke="#a45c50" stroke-width="3" stroke-linecap="round"/><path d="M27 160c4-39 24-61 53-61s49 22 53 61" fill="#d9772b"/><path d="M65 102l15 15 15-15" fill="#fff" opacity=".9"/></svg>
