<svg xmlns="http://www.w3.org/2000/svg" viewBox="0 0 160 160"><defs><linearGradient id="g" x1="0" y1="0" x2="1" y2="1"><stop stop-color="#ede9fe"/><stop offset="1" stop-color="#c4b5fd"/></linearGradient></defs><rect width="160" height="160" rx="34" fill="url(#g)"/><circle cx="80" cy="62" r="31" fill="#f3c5a1"/><path d="M48 61c-1-26 14-43 34-43 24 0 37 17 32 47-8-20-22-28-43-27-5 10-12 18-23 23z" fill="#3e2d45"/><circle cx="68" cy="63" r="3" fill="#32293b"/><circle cx="92" cy="63" r="3" fill="#32293b"/><path d="M71 78c6 5 12 5 18 0" fill="none" stroke="#a85f55" stroke-width="3" stroke-linecap="round"/><path d="M26 160c4-39 25-61 54-61 28 0 49 22 54 61" fill="#6d50c8"/><path d="M65 102l15 15 15-15" fill="#fff" opacity=".9"/></svg>
