<svg xmlns="http://www.w3.org/2000/svg" viewBox="0 0 160 160"><defs><linearGradient id="g" x1="0" y1="0" x2="1" y2="1"><stop stop-color="#cffafe"/><stop offset="1" stop-color="#67e8f9"/></linearGradient></defs><rect width="160" height="160" rx="34" fill="url(#g)"/><circle cx="80" cy="63" r="31" fill="#f4c7a4"/><path d="M47 61c2-29 17-44 37-44 19 0 33 15 34 40-18-3-35-11-47-24-5 13-13 23-24 28z" fill="#263d52"/><circle cx="68" cy="64" r="3" fill="#27394b"/><circle cx="92" cy="64" r="3" fill="#27394b"/><path d="M71 79c6 5 12 5 18 0" fill="none" stroke="#a65f54" stroke-width="3" stroke-linecap="round"/><path d="M27 160c4-40 24-61 53-61s49 21 53 61" fill="#1486a3"/><path d="M65 102l15 15 15-15" fill="#fff" opacity=".9"/></svg>
