<svg xmlns="http://www.w3.org/2000/svg" viewBox="0 0 160 160"><defs><linearGradient id="g" x1="0" y1="0" x2="1" y2="1"><stop stop-color="#d1fae5"/><stop offset="1" stop-color="#6ee7b7"/></linearGradient></defs><rect width="160" height="160" rx="34" fill="url(#g)"/><circle cx="80" cy="63" r="31" fill="#eebc96"/><path d="M49 54c4-25 18-37 35-37 19 0 32 12 35 37-20-11-47-11-70 0z" fill="#253b35"/><circle cx="68" cy="64" r="3" fill="#263832"/><circle cx="92" cy="64" r="3" fill="#263832"/><path d="M71 79c6 4 12 4 18 0" fill="none" stroke="#9b5a50" stroke-width="3" stroke-linecap="round"/><path d="M27 160c4-40 24-61 53-61s49 21 53 61" fill="#16876c"/><path d="M65 102l15 15 15-15" fill="#fff" opacity=".9"/></svg>
