<svg xmlns="http://www.w3.org/2000/svg" viewBox="0 0 160 160"><defs><linearGradient id="g" x1="0" y1="0" x2="1" y2="1"><stop stop-color="#dbeafe"/><stop offset="1" stop-color="#93c5fd"/></linearGradient></defs><rect width="160" height="160" rx="34" fill="url(#g)"/><circle cx="80" cy="62" r="32" fill="#f5c9a8"/><path d="M48 61c0-29 18-42 35-42 22 0 36 16 34 43-9-4-16-12-20-22-11 14-27 22-49 21z" fill="#243a63"/><circle cx="68" cy="63" r="3" fill="#25324a"/><circle cx="92" cy="63" r="3" fill="#25324a"/><path d="M71 78c6 5 12 5 18 0" fill="none" stroke="#a85f55" stroke-width="3" stroke-linecap="round"/><path d="M28 160c3-40 23-61 52-61s49 21 52 61" fill="#2768d8"/><path d="M66 101l14 16 14-16" fill="#fff" opacity=".9"/></svg>
