<svg xmlns="http://www.w3.org/2000/svg" viewBox="0 0 160 160"><defs><linearGradient id="g" x1="0" y1="0" x2="1" y2="1"><stop stop-color="#ffe4e6"/><stop offset="1" stop-color="#fda4af"/></linearGradient></defs><rect width="160" height="160" rx="34" fill="url(#g)"/><circle cx="80" cy="63" r="31" fill="#f2c3a2"/><path d="M47 62c0-29 15-45 36-45 25 0 38 20 34 50-8-22-23-31-47-29-4 10-11 18-23 24z" fill="#4c2c3a"/><circle cx="68" cy="64" r="3" fill="#3b2931"/><circle cx="92" cy="64" r="3" fill="#3b2931"/><path d="M71 79c6 5 12 5 18 0" fill="none" stroke="#a65c54" stroke-width="3" stroke-linecap="round"/><path d="M27 160c4-40 24-61 53-61s49 21 53 61" fill="#c94f6d"/><path d="M65 102l15 15 15-15" fill="#fff" opacity=".9"/></svg>
